<svg width="48" height="24" viewBox="0 0 48 24" fill="none" xmlns="http://www.w3.org/2000/svg">
<rect x="0.3" y="0.3" width="47.4" height="23.4" rx="4.5" fill="white"/>
<path d="M38.2807 9.56697L36.7634 7.33398H35.5251V10.9959H36.511V8.66271L38.0522 10.9959H39.24V7.33662H38.2807V9.56697ZM32.5437 9.44307L33.0486 8.21453L33.5535 9.44307H32.5437ZM32.4427 7.33662L30.8245 10.9985H31.9113L32.2142 10.2472H33.9335L34.263 10.9985H35.3763L33.7076 7.33662H32.4427ZM29.2062 9.19261V9.11616C29.2062 8.56516 29.5092 8.18816 30.1416 8.18816H31.255V7.33662H30.0672C28.8528 7.33662 28.2231 8.11434 28.2231 9.11616V9.19261C28.2231 10.321 28.9299 10.9721 30.0167 10.9721H30.3462L30.7501 10.1443H30.1681C29.5862 10.1707 29.2062 9.84379 29.2062 9.19261ZM26.7297 7.33662V10.9985H27.7155V7.33662H26.7297ZM24.758 8.88943H23.7217V8.1618H24.758C25.0609 8.1618 25.2124 8.33843 25.2124 8.5388C25.2124 8.73916 25.0609 8.88943 24.758 8.88943ZM26.1982 8.51507C26.1982 7.8138 25.6934 7.33662 24.8829 7.33662H22.7598V10.9985H23.7456V9.71988H24.099L25.2124 10.9985H26.4507L25.2363 9.66979C25.8448 9.54325 26.1982 9.08979 26.1982 8.51507ZM18.9945 10.9959H22.1034V10.1681H19.9803V9.56697H22.0529V8.73916H19.9803V8.1618H22.1034V7.33662H18.9945V10.9959ZM15.8616 9.64343L15.0272 7.33662H13.486V10.9985H14.4453V8.3648L15.4045 10.9985H16.2894L17.2752 8.3648V10.9985H18.2345V7.33662H16.6933L15.8616 9.64343ZM10.5019 9.44307L11.0068 8.21453L11.5117 9.44307C11.5143 9.44307 10.5019 9.44307 10.5019 9.44307ZM10.377 7.33662L8.75879 10.9985H9.8456L10.1485 10.2472H11.8678L12.1973 10.9985H13.3106L11.6685 7.33662H10.377Z" fill="#006FCF"/>
<path d="M35.993 14.3837H35.0843C34.8823 14.3837 34.7548 14.2571 34.7548 14.0831C34.7548 13.9091 34.9062 13.8063 35.0843 13.8063H36.7264L37.1064 12.9785H35.0843C34.2499 12.9785 33.7689 13.4794 33.7689 14.1332C33.7689 14.8345 34.2233 15.2379 34.9567 15.2379H35.8655C36.0674 15.2379 36.195 15.3644 36.195 15.5384C36.195 15.715 36.0674 15.839 35.8655 15.839H33.8938V16.6668H35.8655C36.6999 16.6668 37.1808 16.1896 37.1808 15.4883C37.1808 14.7844 36.7503 14.3837 35.993 14.3837ZM32.3792 14.3837H31.4704C31.2685 14.3837 31.1409 14.2571 31.1409 14.0831C31.1409 13.9091 31.2924 13.8063 31.4704 13.8063H33.1126L33.4926 12.9785H31.4704C30.636 12.9785 30.1551 13.4794 30.1551 14.1332C30.1551 14.8345 30.6095 15.2379 31.3429 15.2379H32.2516C32.4536 15.2379 32.5811 15.3644 32.5811 15.5384C32.5811 15.715 32.4536 15.839 32.2516 15.839H30.28V16.6668H32.2516C33.086 16.6668 33.567 16.1896 33.567 15.4883C33.567 14.7844 33.1365 14.3837 32.3792 14.3837ZM26.6156 16.6404H29.7246V15.8126H27.6015V15.2115H29.6741V14.3837H27.6015V13.8063H29.7246V12.9812H26.6156V16.6404ZM24.6679 14.534H23.6316V13.8063H24.6679C24.9708 13.8063 25.1223 13.983 25.1223 14.1833C25.0984 14.3837 24.9469 14.534 24.6679 14.534ZM26.1108 14.1596C26.1108 13.4583 25.6059 12.9812 24.7954 12.9812H22.6723V16.643H23.6581V15.3644H24.0115L25.1249 16.643H26.3393L25.1249 15.3143C25.7308 15.1878 26.1108 14.7343 26.1108 14.1596ZM20.8016 14.6104H19.7387V13.809H20.8016C21.1045 13.809 21.256 13.9856 21.256 14.2097C21.2321 14.4338 21.0806 14.6104 20.8016 14.6104ZM20.9026 12.9812H18.7529V16.643H19.7414V15.4382H20.8787C21.713 15.4382 22.2179 14.911 22.2179 14.2097C22.2179 13.4821 21.713 12.9812 20.9026 12.9812ZM18.5775 12.9812H17.3126L16.3534 14.0858L15.3915 12.9812H14.1027L15.721 14.7871L14.0788 16.643H15.3436L16.3295 15.4883L17.3419 16.643H18.6306L16.9619 14.7633L18.5775 12.9812ZM10.8184 16.6404H13.9273V15.8126H11.8042V15.2115H13.8768V14.3837H11.8042V13.8063H13.9273V12.9812H10.8184V16.6404Z" fill="#006FCF"/>
<rect x="0.3" y="0.3" width="47.4" height="23.4" rx="4.5" stroke="#D0D5DD" stroke-width="0.6"/>
</svg>
