<svg width="17" height="18" viewBox="0 0 17 18" fill="none" xmlns="http://www.w3.org/2000/svg">
<path d="M14.3438 3.625H5.84375C5.70285 3.625 5.56773 3.68097 5.4681 3.7806C5.36847 3.88023 5.3125 4.01535 5.3125 4.15625V6.8125H2.65625C2.51535 6.8125 2.38023 6.86847 2.2806 6.9681C2.18097 7.06773 2.125 7.20285 2.125 7.34375V15.8438C2.125 15.9846 2.18097 16.1198 2.2806 16.2194C2.38023 16.319 2.51535 16.375 2.65625 16.375H11.1562C11.2971 16.375 11.4323 16.319 11.5319 16.2194C11.6315 16.1198 11.6875 15.9846 11.6875 15.8438V13.1875H14.3438C14.4846 13.1875 14.6198 13.1315 14.7194 13.0319C14.819 12.9323 14.875 12.7971 14.875 12.6562V4.15625C14.875 4.01535 14.819 3.88023 14.7194 3.7806C14.6198 3.68097 14.4846 3.625 14.3438 3.625ZM10.625 15.3125H3.1875V7.875H10.625V15.3125ZM13.8125 12.125H11.6875V7.34375C11.6875 7.20285 11.6315 7.06773 11.5319 6.9681C11.4323 6.86847 11.2971 6.8125 11.1562 6.8125H6.375V4.6875H13.8125V12.125Z" fill="#2E3192"/>
</svg>
