<svg width="146" height="74" viewBox="0 0 146 74" fill="none" xmlns="http://www.w3.org/2000/svg">
<path d="M18.6832 64.2341C18.6832 68.2575 17.4424 69.1253 11.695 69.1253C5.92538 69.1253 4.67987 68.2575 4.67987 64.2341V54.3965H0V64.2341C0 71.0454 3.2786 73.6992 11.695 73.6992C20.0915 73.6992 23.3631 71.0454 23.3631 64.2341V54.3965H18.6832V64.2341Z" fill="white"/>
<path d="M48.0356 68.6915C46.6888 68.6241 46.1928 67.9958 42.2016 62.4868C37.5586 56.0718 36.1339 54.3942 31.0424 54.3942H27.9189V73.4316H32.5988V59.1367C33.743 59.2005 34.1927 59.7603 37.8215 64.5128L38.4399 65.3233C43.3464 71.7505 44.8261 73.4316 49.5926 73.4316H52.7155V54.3942H48.0356V68.6915Z" fill="white"/>
<path d="M57.4844 73.4336H62.1642V54.3961H57.4844V73.4336Z" fill="white"/>
<path d="M82.6022 61.9328L74.2438 61.2699C70.9886 61.0076 70.9886 60.4115 70.9886 59.9319C70.9886 59.556 70.9886 58.6759 73.332 58.6759H88.8754V54.3942H73.6769C68.9602 54.3942 66.2548 56.4513 66.2548 60.0385C66.2548 63.4178 68.5239 65.2372 73.1915 65.6008L81.9739 66.2912C84.8672 66.5272 85.2571 67.234 85.2571 67.8939C85.2571 68.2698 85.2571 69.15 82.7533 69.15H66.1758V73.4316H82.5149C88.7372 73.4316 90.043 70.3334 90.043 67.7352C90.043 63.0729 85.797 62.191 82.6022 61.9328Z" fill="white"/>
<path d="M111.968 64.2341C111.968 68.2575 110.728 69.1253 104.98 69.1253C99.2105 69.1253 97.965 68.2575 97.965 64.2341V54.3965H93.2852V64.2341C93.2852 71.0454 96.5638 73.6992 104.98 73.6992C113.377 73.6992 116.648 71.0454 116.648 64.2341V54.3965H111.968V64.2341Z" fill="white"/>
<path d="M141.319 54.3942V68.6915C139.972 68.6241 139.476 67.9958 135.485 62.4868C130.842 56.0718 129.417 54.3942 124.326 54.3942H121.202V73.4316H125.882V59.1361C127.026 59.2 127.476 59.7598 131.105 64.5122L131.723 65.3227C136.63 71.7505 138.109 73.4316 142.876 73.4316H145.999V54.3942H141.319Z" fill="white"/>
<path d="M88.131 6.83662C88.1861 6.45775 87.9969 6.08006 87.6608 5.89678C85.5399 4.73852 83.2866 3.7372 80.9648 2.91974C80.8805 2.89046 80.7938 2.87641 80.7083 2.87641C80.4349 2.87641 80.1725 3.02104 80.0285 3.27108L68.727 22.8449C68.7047 22.8824 68.7288 22.9111 68.7364 22.9187C68.744 22.9263 68.7733 22.9503 68.8107 22.9287L86.0985 12.947C86.6402 12.6343 87.0378 12.1161 87.1888 11.5253C87.5923 9.94892 87.9091 8.37198 88.131 6.83662Z" fill="#EC0927"/>
<path d="M72.109 34.7025C72.1746 34.8161 72.287 34.894 72.417 34.9157C72.5458 34.9373 72.6758 34.9016 72.773 34.8167C73.6086 34.0935 74.4466 33.3106 75.2658 32.4879L68.8099 28.7608C68.7736 28.7385 68.7443 28.7625 68.7361 28.7701C68.7285 28.7777 68.7051 28.8064 68.7267 28.8445L72.109 34.7025Z" fill="#EC0927"/>
<path d="M66.8291 21.7842C66.8291 21.8282 66.8642 21.8405 66.8748 21.8434C66.8847 21.8463 66.9216 21.8528 66.9433 21.8147L78.3309 2.09095C74.8174 1.08787 71.1758 0.510494 67.5048 0.375227C67.4967 0.375227 67.4885 0.374641 67.4808 0.374641C67.3128 0.374641 67.1541 0.439054 67.0311 0.557924C66.9005 0.683237 66.8291 0.851295 66.8291 1.03106V21.7842Z" fill="#EC0927"/>
<path d="M69.808 26.9126C69.8051 26.9232 69.7986 26.9595 69.8367 26.9817L76.0507 30.5695C76.4413 30.7949 76.9385 30.7159 77.233 30.3809C78.222 29.2567 79.163 28.0756 80.0309 26.8675H69.8671C69.8232 26.8675 69.8109 26.9021 69.808 26.9126Z" fill="#EC0927"/>
<path d="M86.0318 15.3538L69.8367 24.7042C69.7986 24.7264 69.8051 24.7627 69.808 24.7733C69.8109 24.7838 69.8238 24.8184 69.8671 24.8184H80.5028C81.0749 24.8184 81.6125 24.5209 81.9059 24.0419C83.5859 21.2956 84.9742 18.3736 86.0318 15.3538Z" fill="#EC0927"/>
<path d="M70.3431 35.7531L66.9433 29.8646C66.9286 29.8394 66.9076 29.8336 66.8923 29.8336C66.8847 29.8336 66.8783 29.8353 66.8748 29.8359C66.8642 29.8389 66.8291 29.8517 66.8291 29.8957V39.1523C67.9516 38.4614 69.0525 37.7159 70.1042 36.936C70.4719 36.6625 70.575 36.1542 70.3431 35.7531Z" fill="#EC0927"/>
<path d="M64.6682 21.8148C64.6899 21.8523 64.7262 21.8464 64.7373 21.8435C64.7479 21.8406 64.7824 21.8277 64.7824 21.7844V1.03237C64.7824 0.852596 64.711 0.68454 64.5804 0.558641C64.4516 0.434502 64.2923 0.372431 64.1061 0.37653C60.4346 0.511797 56.7929 1.08917 53.2812 2.09225L64.6682 21.8148Z" fill="#EC0927"/>
<path d="M64.7795 39.1523V29.8962C64.7795 29.8529 64.7449 29.84 64.7344 29.8371C64.7233 29.8348 64.687 29.8283 64.6653 29.8658L61.2661 35.7531C61.0342 36.1548 61.1372 36.6631 61.505 36.936C62.5567 37.7159 63.6575 38.4614 64.7795 39.1523Z" fill="#EC0927"/>
<path d="M59.1984 34.9155C59.329 34.8938 59.4414 34.816 59.507 34.7018L62.8892 28.8437C62.9109 28.8057 62.8875 28.7776 62.8793 28.77C62.8723 28.7624 62.843 28.7378 62.8055 28.76L56.3496 32.4877C57.1729 33.3134 58.0109 34.0963 58.843 34.8166C58.9396 34.9009 59.0708 34.9378 59.1984 34.9155Z" fill="#EC0927"/>
<path d="M43.4907 6.83577C43.7127 8.36997 44.0295 9.94749 44.4329 11.525C44.5846 12.1159 44.9816 12.6341 45.5238 12.9474L62.811 22.9284C62.8497 22.9506 62.8766 22.9261 62.8848 22.9184C62.893 22.9108 62.9164 22.8821 62.8948 22.8447L51.5933 3.27024C51.4492 3.0202 51.1863 2.87557 50.9128 2.87557C50.8273 2.87557 50.7407 2.88962 50.6564 2.91949C48.3346 3.73635 46.0819 4.73826 43.9609 5.89593C43.6248 6.07922 43.4363 6.45691 43.4907 6.83577Z" fill="#EC0927"/>
<path d="M51.1163 24.8184H61.7514C61.7953 24.8184 61.8082 24.7832 61.8105 24.7727C61.8134 24.7621 61.8199 24.7258 61.7818 24.7042L45.5879 15.3544C46.646 18.3742 48.0332 21.2962 49.7138 24.0419C50.0066 24.5209 50.5442 24.8184 51.1163 24.8184Z" fill="#EC0927"/>
<path d="M55.567 30.569L61.7805 26.9813C61.818 26.9602 61.8121 26.9233 61.8092 26.9128C61.8063 26.9022 61.7934 26.8671 61.7501 26.8671H51.5869C52.4547 28.0751 53.3957 29.2562 54.3842 30.3811C54.6793 30.716 55.1776 30.7951 55.567 30.569Z" fill="#EC0927"/>
</svg>
