<svg width="48" height="24" viewBox="0 0 48 24" fill="none" xmlns="http://www.w3.org/2000/svg">
<rect x="0.3" y="0.3" width="47.4" height="23.4" rx="4.5" fill="white"/>
<g clip-path="url(#clip0_1468_2210)">
<path d="M26.4334 7.63086H21.5664V16.3654H26.4334V7.63086Z" fill="#FF5F00"/>
<path d="M21.8749 11.9983C21.8749 10.3007 22.6629 8.68035 23.9916 7.63096C21.5813 5.73281 18.0895 6.14948 16.189 8.57232C14.2886 10.9797 14.7058 14.4674 17.1315 16.3656C19.1556 17.9551 21.983 17.9551 24.0071 16.3656C22.6629 15.3162 21.8749 13.6958 21.8749 11.9983Z" fill="#EB001B"/>
<path d="M32.9991 11.9983C32.9991 15.0693 30.5116 17.5538 27.4369 17.5538C26.1854 17.5538 24.9802 17.1372 24.0068 16.3656C26.4171 14.4674 26.8343 10.9797 24.9339 8.55689C24.6558 8.21739 24.3468 7.89331 24.0068 7.63096C26.4171 5.73281 29.9244 6.14948 31.8094 8.57232C32.5819 9.54455 32.9991 10.7483 32.9991 11.9983Z" fill="#F79E1B"/>
<path d="M32.4744 15.4387V15.2535H32.5516V15.2227H32.3662V15.2535H32.4435V15.4387H32.4744ZM32.8297 15.4387V15.2227H32.7679L32.7061 15.377L32.6443 15.2227H32.5825V15.4387H32.6289V15.269L32.6907 15.4078H32.737L32.7988 15.269V15.4387H32.8297Z" fill="#F79E1B"/>
</g>
<rect x="0.3" y="0.3" width="47.4" height="23.4" rx="4.5" stroke="#D0D5DD" stroke-width="0.6"/>
<defs>
<clipPath id="clip0_1468_2210">
<rect width="18" height="11.1111" fill="white" transform="translate(15 6.44336)"/>
</clipPath>
</defs>
</svg>
