<svg width="48" height="24" viewBox="0 0 48 24" fill="none" xmlns="http://www.w3.org/2000/svg">
<rect x="0.3" y="0.3" width="47.4" height="23.4" rx="4.5" fill="white"/>
<g clip-path="url(#clip0_1468_2266)">
<path d="M23.3404 12.1939V14.9839H22.4404V8.08398H24.7804C25.3504 8.08398 25.8904 8.29398 26.3104 8.68398C26.7304 9.04397 26.9404 9.58397 26.9404 10.154C26.9404 10.724 26.7304 11.234 26.3104 11.6239C25.8904 12.0139 25.3804 12.2239 24.7804 12.2239L23.3404 12.1939ZM23.3404 8.92398V11.324H24.8404C25.1704 11.324 25.5004 11.204 25.7104 10.964C26.1904 10.514 26.1904 9.76397 25.7404 9.31397L25.7104 9.28397C25.4704 9.04397 25.1704 8.89398 24.8404 8.92398H23.3404Z" fill="#5F6368"/>
<path d="M29.0104 10.123C29.6704 10.123 30.1804 10.303 30.5704 10.663C30.9604 11.023 31.1404 11.503 31.1404 12.103V14.983H30.3004V14.323H30.2704C29.9104 14.863 29.4004 15.133 28.8004 15.133C28.2904 15.133 27.8404 14.983 27.4804 14.683C27.1504 14.383 26.9404 13.963 26.9404 13.513C26.9404 13.033 27.1204 12.643 27.4804 12.343C27.8404 12.043 28.3504 11.923 28.9504 11.923C29.4904 11.923 29.9104 12.013 30.2404 12.223V12.013C30.2404 11.713 30.1204 11.413 29.8804 11.233C29.6404 11.023 29.3404 10.903 29.0104 10.903C28.5004 10.903 28.1104 11.113 27.8404 11.533L27.0604 11.053C27.5404 10.423 28.1704 10.123 29.0104 10.123ZM27.8704 13.543C27.8704 13.783 27.9904 13.993 28.1704 14.113C28.3804 14.263 28.6204 14.353 28.8604 14.353C29.2204 14.353 29.5804 14.203 29.8504 13.933C30.1504 13.663 30.3004 13.333 30.3004 12.973C30.0304 12.763 29.6404 12.643 29.1304 12.643C28.7704 12.643 28.4704 12.733 28.2304 12.913C27.9904 13.063 27.8704 13.273 27.8704 13.543Z" fill="#5F6368"/>
<path d="M36 10.2734L33.03 17.0834H32.13L33.24 14.7134L31.29 10.3034H32.25L33.66 13.6934H33.69L35.07 10.3034H36V10.2734Z" fill="#5F6368"/>
<path d="M19.77 11.5951C19.77 11.3252 19.74 11.0552 19.71 10.7852H15.96V12.3151H18.09C18 12.7951 17.73 13.2451 17.31 13.5151V14.5051H18.6C19.35 13.8151 19.77 12.7951 19.77 11.5951Z" fill="#4285F4"/>
<path d="M15.9599 15.4639C17.0399 15.4639 17.9399 15.1039 18.5999 14.5039L17.3099 13.5139C16.9499 13.7539 16.4999 13.9039 15.9599 13.9039C14.9399 13.9039 14.0399 13.2139 13.7399 12.2539H12.4199V13.2739C13.1099 14.6239 14.4599 15.4639 15.9599 15.4639Z" fill="#34A853"/>
<path d="M13.7397 12.2551C13.5597 11.7751 13.5597 11.2351 13.7397 10.7251V9.70508H12.4197C11.8497 10.8151 11.8497 12.1351 12.4197 13.275L13.7397 12.2551Z" fill="#FBBC04"/>
<path d="M15.9602 9.10457C16.5302 9.10457 17.0702 9.31456 17.4902 9.70456L18.6302 8.56457C17.9102 7.90458 16.9502 7.51458 15.9902 7.54458C14.4902 7.54458 13.1102 8.38457 12.4502 9.73456L13.7702 10.7545C14.0402 9.79456 14.9402 9.10457 15.9602 9.10457Z" fill="#EA4335"/>
</g>
<rect x="0.3" y="0.3" width="47.4" height="23.4" rx="4.5" stroke="#D0D5DD" stroke-width="0.6"/>
<defs>
<clipPath id="clip0_1468_2266">
<rect width="24" height="11.4299" fill="white" transform="translate(12 6.28516)"/>
</clipPath>
</defs>
</svg>
