<svg width="48" height="24" viewBox="0 0 48 24" fill="none" xmlns="http://www.w3.org/2000/svg">
<rect x="0.3" y="0.3" width="47.4" height="23.4" rx="4.5" fill="white"/>
<g clip-path="url(#clip0_1468_2257)">
<path d="M15.2299 7.78761C14.9059 8.17101 14.3875 8.4734 13.8691 8.4302C13.8043 7.91181 14.0581 7.36101 14.3551 7.02081C14.6791 6.62662 15.2461 6.34582 15.7051 6.32422C15.7591 6.86422 15.5485 7.39341 15.2299 7.78761ZM15.6997 8.5328C14.9491 8.4896 14.3065 8.9594 13.9501 8.9594C13.5883 8.9594 13.0429 8.5544 12.4489 8.5652C11.6767 8.576 10.9585 9.0134 10.5643 9.71C9.75434 11.1032 10.3537 13.166 11.1367 14.3C11.5201 14.8616 11.9791 15.4772 12.5839 15.4556C13.1563 15.434 13.3831 15.083 14.0743 15.083C14.7709 15.083 14.9707 15.4556 15.5755 15.4448C16.2019 15.434 16.5961 14.8832 16.9795 14.3216C17.4169 13.6844 17.5951 13.0634 17.6059 13.031C17.5951 13.0202 16.3963 12.5612 16.3855 11.1788C16.3747 10.0232 17.3305 9.4724 17.3737 9.44C16.8337 8.6408 15.9913 8.5544 15.6997 8.5328ZM20.0359 6.96681V15.3854H21.3427V12.5072H23.1517C24.8041 12.5072 25.9651 11.3732 25.9651 9.7316C25.9651 8.09001 24.8257 6.96681 23.1949 6.96681H20.0359ZM21.3427 8.06841H22.8493C23.9833 8.06841 24.6313 8.6732 24.6313 9.737C24.6313 10.8008 23.9833 11.411 22.8439 11.411H21.3427V8.06841ZM28.3519 15.4502C29.1727 15.4502 29.9341 15.0344 30.2797 14.3756H30.3067V15.3854H31.5163V11.195C31.5163 9.97999 30.5443 9.197 29.0485 9.197C27.6607 9.197 26.6347 9.99079 26.5969 11.0816H27.7741C27.8713 10.5632 28.3519 10.223 29.0107 10.223C29.8099 10.223 30.2581 10.5956 30.2581 11.2814V11.7458L28.6273 11.843C27.1099 11.9348 26.2891 12.5558 26.2891 13.6358C26.2891 14.7266 27.1369 15.4502 28.3519 15.4502ZM28.7029 14.4512C28.0063 14.4512 27.5635 14.1164 27.5635 13.6034C27.5635 13.0742 27.9901 12.7664 28.8055 12.7178L30.2581 12.626V13.1012C30.2581 13.8896 29.5885 14.4512 28.7029 14.4512ZM33.1309 17.6749C34.4053 17.6749 35.0047 17.1889 35.5285 15.7148L37.8235 9.278H36.4951L34.9561 14.2514H34.9291L33.3901 9.278H32.0239L34.2379 15.407L34.1191 15.7796C33.9193 16.4114 33.5953 16.6543 33.0175 16.6543C32.9149 16.6543 32.7151 16.6435 32.6341 16.6327V17.6425C32.7097 17.6641 33.0337 17.6749 33.1309 17.6749Z" fill="black"/>
</g>
<rect x="0.3" y="0.3" width="47.4" height="23.4" rx="4.5" stroke="#D0D5DD" stroke-width="0.6"/>
<defs>
<clipPath id="clip0_1468_2257">
<rect width="27.6479" height="11.3507" fill="white" transform="translate(10.1758 6.32422)"/>
</clipPath>
</defs>
</svg>
