<svg width="60" height="48" viewBox="0 0 60 48" fill="none" xmlns="http://www.w3.org/2000/svg">
<path d="M54 24C54 37.2548 43.2548 48 30 48C16.7452 48 6 37.2548 6 24C6 10.7452 16.7452 0 30 0C43.2548 0 54 10.7452 54 24Z" fill="#FCF2F2"/>
<mask id="path-2-inside-1_51_4183" fill="white">
<path fill-rule="evenodd" clip-rule="evenodd" d="M31.3776 12.8008C31.8941 12.8009 32.3941 12.9861 32.79 13.3238L32.933 13.4571L37.7884 18.4008C38.1536 18.7726 38.3787 19.2635 38.4242 19.7873L38.433 19.9845V32.9608C38.4332 33.5259 38.2236 34.0702 37.8462 34.4846C37.4688 34.899 36.9515 35.1528 36.398 35.1952L36.233 35.2008H23.033C22.478 35.201 21.9434 34.9875 21.5364 34.6033C21.1294 34.219 20.8801 33.6923 20.8385 33.1288L20.833 32.9608V15.0408C20.8328 14.4757 21.0425 13.9313 21.4199 13.517C21.7973 13.1026 22.3145 12.8488 22.868 12.8064L23.033 12.8008H31.3776ZM29.633 15.0408H23.033V32.9608H36.233V21.7608H31.283C30.8728 21.7608 30.4774 21.6052 30.1737 21.3244C29.8701 21.0436 29.6801 20.6578 29.6407 20.2421L29.633 20.0808V15.0408ZM30.7198 23.8305C30.9834 25.5363 31.8595 27.0816 33.1783 28.1672C34.154 28.9702 33.2619 30.5427 32.0915 30.0846C30.5091 29.4646 28.7569 29.4646 27.1745 30.0846C26.003 30.5438 25.1109 28.9702 26.0866 28.1672C27.4055 27.0817 28.2816 25.5363 28.5451 23.8305C28.7409 22.5683 30.5251 22.5694 30.7198 23.8305ZM29.6308 26.411L28.874 27.7505H30.392L29.6308 26.411ZM31.833 15.5045V19.5208H35.7776L31.833 15.5045Z"/>
</mask>
<path d="M31.3776 12.8008L31.3782 10.4008H31.3776V12.8008ZM32.79 13.3238L34.4263 11.5681L34.3878 11.5322L34.3477 11.498L32.79 13.3238ZM32.933 13.4571L34.6453 11.7754L34.6081 11.7376L34.5693 11.7014L32.933 13.4571ZM37.7884 18.4008L39.5007 16.7191L39.5007 16.7191L37.7884 18.4008ZM38.4242 19.7873L40.8218 19.6803L40.8196 19.6299L40.8152 19.5796L38.4242 19.7873ZM38.433 19.9845H40.833V19.9309L40.8306 19.8774L38.433 19.9845ZM38.433 32.9608H36.033L36.033 32.9615L38.433 32.9608ZM36.398 35.1952L36.4794 37.5938L36.5304 37.5921L36.5813 37.5882L36.398 35.1952ZM36.233 35.2008V37.6008H36.2737L36.3144 37.5994L36.233 35.2008ZM23.033 35.2008V32.8008H23.0322L23.033 35.2008ZM20.8385 33.1288L18.4398 33.2073L18.4414 33.2565L18.445 33.3056L20.8385 33.1288ZM20.833 32.9608H18.433V33.0001L18.4343 33.0393L20.833 32.9608ZM20.833 15.0408H23.233L23.233 15.04L20.833 15.0408ZM22.868 12.8064L22.7866 10.4078L22.7356 10.4095L22.6848 10.4134L22.868 12.8064ZM23.033 12.8008V10.4008H22.9923L22.9516 10.4022L23.033 12.8008ZM29.633 15.0408H32.033V12.6408H29.633V15.0408ZM23.033 15.0408V12.6408H20.633V15.0408H23.033ZM23.033 32.9608H20.633V35.3608H23.033V32.9608ZM36.233 32.9608V35.3608H38.633V32.9608H36.233ZM36.233 21.7608H38.633V19.3608H36.233V21.7608ZM31.283 21.7608L31.2829 24.1608H31.283V21.7608ZM29.6407 20.2421L27.2434 20.3565L27.2461 20.4125L27.2514 20.4684L29.6407 20.2421ZM29.633 20.0808H27.233V20.138L27.2357 20.1952L29.633 20.0808ZM30.7198 23.8305L28.3479 24.1967L28.348 24.1971L30.7198 23.8305ZM33.1783 28.1672L31.653 30.0202L31.6532 30.0203L33.1783 28.1672ZM32.0915 30.0846L31.2159 32.3192L31.2168 32.3195L32.0915 30.0846ZM27.1745 30.0846L26.2989 27.85L26.2986 27.8501L27.1745 30.0846ZM26.0866 28.1672L27.6118 30.0203L27.6118 30.0203L26.0866 28.1672ZM28.5451 23.8305L26.1735 23.4627L26.1732 23.4641L28.5451 23.8305ZM29.6308 26.411L31.7174 25.2253L29.6248 21.5427L27.5412 25.2305L29.6308 26.411ZM28.874 27.7505L26.7844 26.57L24.7615 30.1505H28.874V27.7505ZM30.392 27.7505V30.1505H34.5163L32.4786 26.5648L30.392 27.7505ZM31.833 15.5045L33.5453 13.8228L29.433 9.63572V15.5045H31.833ZM31.833 19.5208H29.433V21.9208H31.833V19.5208ZM35.7776 19.5208V21.9208H41.4987L37.4899 17.8391L35.7776 19.5208ZM31.377 15.2008C31.318 15.2008 31.2671 15.1793 31.2323 15.1497L34.3477 11.498C33.5211 10.7928 32.4702 10.4011 31.3782 10.4008L31.377 15.2008ZM31.1537 15.0795L31.2967 15.2128L34.5693 11.7014L34.4263 11.5681L31.1537 15.0795ZM31.2207 15.1388L36.0761 20.0825L39.5007 16.7191L34.6453 11.7754L31.2207 15.1388ZM36.0761 20.0825C36.0471 20.0529 36.0355 20.0211 36.0332 19.995L40.8152 19.5796C40.7219 18.5059 40.2602 17.4924 39.5007 16.7191L36.0761 20.0825ZM36.0266 19.8944L36.0354 20.0915L40.8306 19.8774L40.8218 19.6803L36.0266 19.8944ZM36.033 19.9845V32.9608H40.833V19.9845H36.033ZM36.033 32.9615C36.033 32.9341 36.0428 32.9004 36.0718 32.8686L39.6205 36.1006C40.4043 35.2401 40.8334 34.1177 40.833 32.96L36.033 32.9615ZM36.0718 32.8686C36.1019 32.8355 36.1516 32.807 36.2148 32.8022L36.5813 37.5882C37.7513 37.4986 38.8356 36.9624 39.6205 36.1006L36.0718 32.8686ZM36.3166 32.7966L36.1516 32.8022L36.3144 37.5994L36.4794 37.5938L36.3166 32.7966ZM36.233 32.8008H23.033V37.6008H36.233V32.8008ZM23.0322 32.8008C23.0959 32.8008 23.1496 32.8256 23.1841 32.8582L19.8888 36.3483C20.7372 37.1494 21.8601 37.6012 23.0338 37.6008L23.0322 32.8008ZM23.1841 32.8582C23.2173 32.8896 23.2299 32.9243 23.232 32.952L18.445 33.3056C18.5303 34.4603 19.0415 35.5484 19.8888 36.3483L23.1841 32.8582ZM23.2372 33.0502L23.2317 32.8822L18.4343 33.0393L18.4398 33.2073L23.2372 33.0502ZM23.233 32.9608V15.0408H18.433V32.9608H23.233ZM23.233 15.04C23.233 15.0675 23.2232 15.1012 23.1942 15.133L19.6455 11.9009C18.8617 12.7615 18.4326 13.8838 18.433 15.0415L23.233 15.04ZM23.1942 15.133C23.1641 15.1661 23.1144 15.1945 23.0513 15.1994L22.6848 10.4134C21.5147 10.503 20.4304 11.0391 19.6455 11.9009L23.1942 15.133ZM22.9494 15.205L23.1144 15.1994L22.9516 10.4022L22.7866 10.4078L22.9494 15.205ZM23.033 15.2008H31.3776V10.4008H23.033V15.2008ZM29.633 12.6408H23.033V17.4408H29.633V12.6408ZM20.633 15.0408V32.9608H25.433V15.0408H20.633ZM23.033 35.3608H36.233V30.5608H23.033V35.3608ZM38.633 32.9608V21.7608H33.833V32.9608H38.633ZM36.233 19.3608H31.283V24.1608H36.233V19.3608ZM31.2831 19.3608C31.4825 19.3608 31.6674 19.4368 31.8032 19.5624L28.5443 23.0865C29.2873 23.7736 30.2632 24.1607 31.2829 24.1608L31.2831 19.3608ZM31.8032 19.5624C31.9378 19.6868 32.0143 19.8498 32.03 20.0157L27.2514 20.4684C27.3459 21.4658 27.8024 22.4004 28.5443 23.0865L31.8032 19.5624ZM32.038 20.1276L32.0303 19.9663L27.2357 20.1952L27.2434 20.3565L32.038 20.1276ZM32.033 20.0808V15.0408H27.233V20.0808H32.033ZM28.348 24.1971C28.7006 26.4787 29.8738 28.5556 31.653 30.0202L34.7036 26.3142C33.8452 25.6076 33.2663 24.5938 33.0916 23.464L28.348 24.1971ZM31.6532 30.0203C31.4342 29.84 31.2558 29.5466 31.2077 29.2013C31.1641 28.8888 31.2371 28.6175 31.352 28.415C31.4665 28.213 31.669 27.9989 31.9816 27.8707C32.3283 27.7285 32.6926 27.7426 32.9662 27.8497L31.2168 32.3195C33.0983 33.056 34.7949 32.0745 35.5274 30.7826C36.2555 29.4987 36.2322 27.5723 34.7035 26.3141L31.6532 30.0203ZM32.9671 27.85C30.8218 27.0094 28.4443 27.0094 26.2989 27.85L28.0501 32.3192C29.0696 31.9197 30.1964 31.9197 31.2159 32.3192L32.9671 27.85ZM26.2986 27.8501C26.5716 27.7431 26.9358 27.7286 27.2828 27.8708C27.5958 27.999 27.7984 28.2132 27.913 28.4152C28.0278 28.6177 28.1008 28.8889 28.0573 29.2011C28.0092 29.5463 27.831 29.8399 27.6118 30.0203L24.5615 26.3141C23.0325 27.5725 23.0096 29.4994 23.7378 30.7833C24.471 32.076 26.1686 33.0567 28.0504 32.3191L26.2986 27.8501ZM27.6118 30.0203C29.3912 28.5557 30.5645 26.4787 30.917 24.197L26.1732 23.4641C25.9987 24.5939 25.4198 25.6076 24.5614 26.3141L27.6118 30.0203ZM30.9167 24.1984C30.6923 25.6451 28.572 25.6479 28.3479 24.1967L33.0917 23.4644C32.4783 19.4909 26.7895 19.4915 26.1735 23.4627L30.9167 24.1984ZM27.5412 25.2305L26.7844 26.57L30.9636 28.9311L31.7204 27.5916L27.5412 25.2305ZM28.874 30.1505H30.392V25.3505H28.874V30.1505ZM32.4786 26.5648L31.7174 25.2253L27.5442 27.5968L28.3054 28.9363L32.4786 26.5648ZM29.433 15.5045V19.5208H34.233V15.5045H29.433ZM31.833 21.9208H35.7776V17.1208H31.833V21.9208ZM37.4899 17.8391L33.5453 13.8228L30.1207 17.1862L34.0653 21.2025L37.4899 17.8391Z" fill="#EC0927" mask="url(#path-2-inside-1_51_4183)"/>
</svg>
