<svg width="48" height="24" viewBox="0 0 48 24" fill="none" xmlns="http://www.w3.org/2000/svg">
<rect x="0.3" y="0.3" width="47.4" height="23.4" rx="4.5" fill="white"/>
<g clip-path="url(#clip0_1468_2260)">
<path d="M9.64894 12.9873C9.64894 13.3431 9.72702 13.6162 9.82908 13.7815C9.9629 13.9979 10.1625 14.0896 10.366 14.0896C10.6284 14.0896 10.8685 14.0245 11.3312 13.3846C11.7018 12.8717 12.1386 12.1517 12.4325 11.7004L12.9301 10.9358C13.2758 10.4047 13.676 9.81442 14.1348 9.41428C14.5093 9.08769 14.9134 8.90625 15.32 8.90625C16.0027 8.90625 16.653 9.30185 17.1506 10.0438C17.6953 10.8564 17.9597 11.8799 17.9597 12.9361C17.9597 13.5641 17.8359 14.0254 17.6253 14.3899C17.4218 14.7424 17.0252 15.0946 16.3581 15.0946V14.0896C16.9293 14.0896 17.0719 13.5647 17.0719 12.964C17.0719 12.108 16.8723 11.158 16.4326 10.4793C16.1206 9.9978 15.7163 9.70361 15.2714 9.70361C14.7902 9.70361 14.4031 10.0665 13.9679 10.7135C13.7366 11.0573 13.4991 11.4762 13.2324 11.9489L12.9389 12.4689C12.3492 13.5145 12.1998 13.7526 11.905 14.1456C11.3882 14.8338 10.9469 15.0946 10.366 15.0946C9.6768 15.0946 9.24102 14.7962 8.97112 14.3465C8.7508 13.9801 8.64258 13.4993 8.64258 12.9514L9.64894 12.9873Z" fill="#0081FB"/>
<path d="M9.4375 10.1148C9.89888 9.40359 10.5647 8.90625 11.3284 8.90625C11.7707 8.90625 12.2103 9.03715 12.6694 9.41201C13.1717 9.82187 13.7069 10.4968 14.3747 11.609L14.6141 12.0082C15.1922 12.9711 15.521 13.4665 15.7135 13.7001C15.961 14.0002 16.1344 14.0896 16.3595 14.0896C16.9308 14.0896 17.0733 13.5647 17.0733 12.964L17.9611 12.9361C17.9611 13.5641 17.8373 14.0254 17.6267 14.3899C17.4232 14.7424 17.0267 15.0946 16.3595 15.0946C15.9448 15.0946 15.5774 15.0046 15.1711 14.6213C14.8587 14.3271 14.4936 13.8045 14.2127 13.3347L13.3771 11.9389C12.9578 11.2384 12.5732 10.7161 12.3506 10.4796C12.1112 10.2252 11.8034 9.9181 11.3122 9.9181C10.9146 9.9181 10.577 10.1971 10.2945 10.6238L9.4375 10.1148Z" fill="url(#paint0_linear_1468_2260)"/>
<path d="M11.3108 9.9181C10.9132 9.9181 10.5756 10.1971 10.2931 10.6238C9.89356 11.2267 9.64894 12.1249 9.64894 12.9873C9.64894 13.3431 9.72702 13.6162 9.82908 13.7815L8.97112 14.3465C8.7508 13.9801 8.64258 13.4993 8.64258 12.9514C8.64258 11.9551 8.91604 10.9167 9.43607 10.1148C9.89745 9.40359 10.5633 8.90625 11.327 8.90625L11.3108 9.9181Z" fill="url(#paint1_linear_1468_2260)"/>
<path d="M19.917 9.10156H21.0811L23.0605 12.6824L25.0402 9.10156H26.179V14.9854H25.2294V10.476L23.4934 13.5987H22.6023L20.8667 10.476V14.9854H19.917V9.10156ZM29.1547 11.2954C28.4736 11.2954 28.0634 11.8079 27.9653 12.4426H30.2767C30.2291 11.7888 29.852 11.2954 29.1547 11.2954ZM27.0237 12.8042C27.0237 11.4687 27.8869 10.4967 29.1712 10.4967C30.4345 10.4967 31.1888 11.4564 31.1888 12.8755V13.1363H27.9653C28.0796 13.8268 28.5378 14.292 29.2765 14.292C29.8659 14.292 30.2343 14.1122 30.5836 13.7833L31.088 14.4012C30.6127 14.8383 30.0081 15.0904 29.2428 15.0904C27.8525 15.0904 27.0237 14.0766 27.0237 12.8042ZM32.3403 11.3796H31.4661V10.602H32.3403V9.31605H33.2566V10.602H34.5847V11.3796H33.2566V13.3505C33.2566 14.0234 33.4717 14.2625 34.0005 14.2625C34.2419 14.2625 34.3802 14.2418 34.5847 14.2078V14.977C34.33 15.0489 34.087 15.0819 33.8239 15.0819C32.8347 15.0819 32.3403 14.5415 32.3403 13.4597V11.3796ZM38.4429 12.1358C38.2589 11.6712 37.8484 11.3291 37.2451 11.3291C36.461 11.3291 35.9591 11.8854 35.9591 12.7916C35.9591 13.6751 36.4212 14.2583 37.2075 14.2583C37.8257 14.2583 38.267 13.8987 38.4429 13.4512V12.1358ZM39.3592 14.9854H38.4598V14.3717C38.2084 14.733 37.7509 15.0904 37.0099 15.0904C35.8182 15.0904 35.0218 14.0928 35.0218 12.7916C35.0218 11.4781 35.8373 10.4967 37.0604 10.4967C37.665 10.4967 38.1394 10.7384 38.4598 11.1651V10.602H39.3592V14.9854Z" fill="#192830"/>
</g>
<rect x="0.3" y="0.3" width="47.4" height="23.4" rx="4.5" stroke="#D0D5DD" stroke-width="0.6"/>
<defs>
<linearGradient id="paint0_linear_1468_2260" x1="10.6204" y1="12.697" x2="17.0357" y2="13.021" gradientUnits="userSpaceOnUse">
<stop stop-color="#0064E1"/>
<stop offset="0.4" stop-color="#0064E1"/>
<stop offset="0.83" stop-color="#0073EE"/>
<stop offset="1" stop-color="#0082FB"/>
</linearGradient>
<linearGradient id="paint1_linear_1468_2260" x1="10.1006" y1="13.4098" x2="10.1006" y2="11.0446" gradientUnits="userSpaceOnUse">
<stop stop-color="#0082FB"/>
<stop offset="1" stop-color="#0064E0"/>
</linearGradient>
<clipPath id="clip0_1468_2260">
<rect width="30.7157" height="6.18838" fill="white" transform="translate(8.6416 8.90625)"/>
</clipPath>
</defs>
</svg>
