<svg width="48" height="24" viewBox="0 0 48 24" fill="none" xmlns="http://www.w3.org/2000/svg">
<rect x="0.3" y="0.3" width="47.4" height="23.4" rx="4.5" fill="white"/>
<g clip-path="url(#clip0_1468_2251)">
<path d="M28.1914 8.94719C28.2235 7.27769 26.8459 5.99609 24.9517 5.99609H21.0343C20.943 5.99612 20.8547 6.02874 20.7853 6.08809C20.7159 6.14743 20.67 6.22959 20.6557 6.31979L19.0858 16.1286C19.0788 16.173 19.0815 16.2185 19.0937 16.2618C19.106 16.3051 19.1274 16.3452 19.1567 16.3794C19.1859 16.4137 19.2222 16.4411 19.263 16.46C19.3039 16.4788 19.3484 16.4886 19.3933 16.4886H21.7144L21.3514 18.7602C21.3444 18.8047 21.3471 18.8501 21.3594 18.8935C21.3716 18.9368 21.3931 18.9769 21.4223 19.0112C21.4516 19.0454 21.4879 19.0728 21.5288 19.0917C21.5697 19.1105 21.6142 19.1202 21.6592 19.1202H23.5498C23.6413 19.1202 23.7226 19.0872 23.7919 19.0281C23.8612 18.9687 23.8726 18.8868 23.8867 18.7965L24.4417 15.531C24.4558 15.441 24.5017 15.324 24.5713 15.2646C24.6406 15.2052 24.7012 15.1728 24.7924 15.1725H25.9498C27.8047 15.1725 29.3788 13.8543 29.6665 12.0204C29.8699 10.7184 29.3116 9.53429 28.1914 8.94719Z" fill="#001C64"/>
<path d="M22.2164 12.8713L21.6383 16.5373L21.2753 18.8365C21.2683 18.8809 21.271 18.9264 21.2832 18.9697C21.2955 19.0131 21.3169 19.0532 21.3462 19.0874C21.3755 19.1216 21.4118 19.1491 21.4527 19.1679C21.4936 19.1868 21.5381 19.1965 21.5831 19.1965H23.5841C23.6754 19.1964 23.7636 19.1637 23.8329 19.1044C23.9023 19.045 23.9482 18.9629 23.9624 18.8728L24.4898 15.5308C24.504 15.4406 24.5499 15.3586 24.6193 15.2993C24.6886 15.24 24.7769 15.2074 24.8681 15.2074H26.0462C27.9011 15.2074 29.4749 13.8544 29.7626 12.0205C29.9666 10.7188 29.3114 9.53467 28.1912 8.94727C28.1882 9.08587 28.1762 9.22417 28.1549 9.36127C27.8672 11.1949 26.2931 12.5482 24.4382 12.5482H22.5947C22.5035 12.5482 22.4153 12.5807 22.346 12.64C22.2766 12.6992 22.2307 12.7812 22.2164 12.8713Z" fill="#0070E0"/>
<path d="M21.6384 16.5364H19.3104C19.2654 16.5365 19.2209 16.5267 19.18 16.5079C19.1391 16.4891 19.1028 16.4616 19.0736 16.4274C19.0443 16.3932 19.0229 16.353 19.0107 16.3097C18.9985 16.2663 18.9958 16.2209 19.0029 16.1764L20.5725 6.22184C20.5867 6.13166 20.6327 6.04953 20.7021 5.99024C20.7715 5.93095 20.8598 5.89839 20.9511 5.89844H24.9522C26.8461 5.89844 28.2237 7.27694 28.1916 8.94644C27.7203 8.69924 27.1665 8.55794 26.5596 8.55794H23.2239C23.1327 8.55803 23.0445 8.59064 22.9751 8.64991C22.9058 8.70919 22.8599 8.79124 22.8456 8.88134L22.2171 12.8704L21.6384 16.5364Z" fill="#003087"/>
</g>
<rect x="0.3" y="0.3" width="47.4" height="23.4" rx="4.5" stroke="#D0D5DD" stroke-width="0.6"/>
<defs>
<clipPath id="clip0_1468_2251">
<rect width="14.4" height="14.4" fill="white" transform="translate(16.7998 4.80078)"/>
</clipPath>
</defs>
</svg>
