<svg width="24" height="25" viewBox="0 0 24 25" fill="none" xmlns="http://www.w3.org/2000/svg">
<path d="M9.7097 11.7905C9.52139 11.6022 9.266 11.4964 8.9997 11.4964C8.7334 11.4964 8.478 11.6022 8.2897 11.7905C8.10139 11.9788 7.99561 12.2342 7.99561 12.5005C7.99561 12.7668 8.10139 13.0222 8.2897 13.2105L11.2897 16.2105C11.3831 16.3032 11.494 16.3765 11.6158 16.4263C11.7376 16.476 11.8681 16.5012 11.9997 16.5005C12.1366 16.4961 12.2711 16.4637 12.395 16.4052C12.5188 16.3467 12.6294 16.2634 12.7197 16.1605L19.7197 8.16048C19.8813 7.95981 19.9593 7.70449 19.9372 7.44776C19.9152 7.19104 19.795 6.95271 19.6015 6.78249C19.4081 6.61227 19.1564 6.52328 18.899 6.53408C18.6415 6.54489 18.3982 6.65465 18.2197 6.84048L11.9997 14.0405L9.7097 11.7905Z" fill="#EC0927"/>
<path d="M20.9998 11.5C20.7346 11.5 20.4802 11.6054 20.2927 11.7929C20.1052 11.9804 19.9998 12.2348 19.9998 12.5C19.9998 14.6217 19.157 16.6566 17.6567 18.1569C16.1564 19.6571 14.1215 20.5 11.9998 20.5C10.4199 20.4993 8.87558 20.0308 7.56158 19.1535C6.24757 18.2763 5.22274 17.0297 4.61629 15.5708C4.00985 14.1119 3.84896 12.5061 4.1539 10.9559C4.45885 9.40569 5.21597 7.98048 6.32981 6.86C7.07052 6.10938 7.95349 5.51404 8.92707 5.10881C9.90065 4.70358 10.9453 4.49661 11.9998 4.5C12.6393 4.504 13.2764 4.57777 13.8998 4.72C14.0303 4.76035 14.1676 4.77356 14.3034 4.7588C14.4392 4.74404 14.5705 4.70163 14.6892 4.63418C14.808 4.56673 14.9116 4.47567 14.9938 4.36662C15.076 4.25757 15.135 4.13284 15.1672 4.00011C15.1994 3.86739 15.204 3.72948 15.1808 3.5949C15.1576 3.46032 15.1071 3.33191 15.0324 3.21759C14.9577 3.10327 14.8604 3.00547 14.7464 2.93021C14.6324 2.85495 14.5043 2.80383 14.3698 2.78C13.593 2.59724 12.7979 2.50331 11.9998 2.5C10.0242 2.51026 8.0958 3.10552 6.45811 4.21065C4.82042 5.31578 3.54678 6.88126 2.79793 8.70953C2.04908 10.5378 1.85857 12.5469 2.25045 14.4834C2.64232 16.4198 3.59902 18.1968 4.99981 19.59C6.8565 21.4475 9.37347 22.4939 11.9998 22.5C14.652 22.5 17.1955 21.4464 19.0709 19.5711C20.9462 17.6957 21.9998 15.1522 21.9998 12.5C21.9998 12.2348 21.8945 11.9804 21.7069 11.7929C21.5194 11.6054 21.265 11.5 20.9998 11.5Z" fill="#EC0927"/>
</svg>
