<svg width="48" height="24" viewBox="0 0 48 24" fill="none" xmlns="http://www.w3.org/2000/svg">
<rect x="0.3" y="0.3" width="47.4" height="23.4" rx="4.5" fill="white"/>
<g clip-path="url(#clip0_1468_2284)">
<path d="M16.6189 10.7019C16.3754 10.1907 15.9128 9.85954 15.2149 9.85954C15.001 9.86342 14.7908 9.91636 14.6006 10.0143C14.4104 10.1122 14.2451 10.2525 14.1177 10.4244L14.0917 10.4552V8.44421C14.0917 8.43259 14.0871 8.42144 14.0789 8.41322C14.0707 8.40501 14.0595 8.40039 14.0479 8.40039H13.0627C13.0514 8.40081 13.0406 8.40561 13.0328 8.41378C13.0249 8.42196 13.0205 8.43287 13.0205 8.44421V14.1997C13.0205 14.2109 13.025 14.2216 13.0329 14.2295C13.0408 14.2374 13.0515 14.2419 13.0627 14.2419H14.1177C14.1291 14.2419 14.14 14.2375 14.1481 14.2296C14.1563 14.2217 14.1611 14.211 14.1615 14.1997V11.7456C14.156 11.6363 14.1737 11.5271 14.2135 11.4251C14.2532 11.3232 14.3141 11.2308 14.3922 11.1541C14.4703 11.0774 14.5637 11.0182 14.6663 10.9802C14.769 10.9423 14.8785 10.9265 14.9877 10.934C15.5444 10.934 15.684 11.3917 15.684 11.8592V14.2029C15.684 14.2141 15.6884 14.2248 15.6963 14.2328C15.7043 14.2407 15.715 14.2451 15.7262 14.2451H16.7796C16.7909 14.2451 16.8018 14.2407 16.81 14.2329C16.8182 14.225 16.823 14.2143 16.8234 14.2029V11.7196C16.8253 11.6361 16.8215 11.5526 16.812 11.4696C16.7947 11.2041 16.7292 10.944 16.6189 10.7019Z" fill="#5A31F4"/>
<path d="M11.34 11.5497C11.34 11.5497 10.8027 11.4231 10.6047 11.3727C10.4067 11.3224 10.061 11.2104 10.061 10.9524C10.061 10.6943 10.3401 10.6066 10.6226 10.6066C10.905 10.6066 11.2199 10.6748 11.2442 10.9897C11.2454 11.0009 11.2507 11.0112 11.2591 11.0187C11.2675 11.0262 11.2784 11.0303 11.2897 11.0303H12.33H12.3479L12.3625 11.0205C12.3667 11.016 12.3699 11.0106 12.3718 11.0047C12.3738 10.9988 12.3745 10.9926 12.3739 10.9864C12.3089 9.98175 11.4276 9.62305 10.6145 9.62305C9.65034 9.62305 8.94593 10.2593 8.94593 10.9605C8.94593 11.4717 9.09038 11.9522 10.2282 12.2865C10.4278 12.345 10.6989 12.4196 10.9358 12.4862C11.2199 12.5657 11.3741 12.6858 11.3741 12.8741C11.3741 13.0932 11.0494 13.2458 10.7443 13.2458C10.2915 13.2458 9.97009 13.0835 9.94412 12.7767C9.94255 12.7658 9.93707 12.7559 9.92871 12.7487C9.92036 12.7415 9.90968 12.7376 9.89867 12.7377H8.8599H8.84205L8.82744 12.7475C8.82324 12.7518 8.81993 12.7568 8.8177 12.7624C8.81547 12.768 8.81437 12.7739 8.81446 12.7799C8.86153 13.7278 9.77857 14.2407 10.6323 14.2407C11.9048 14.2407 12.4794 13.5249 12.4794 12.8546C12.4891 12.5397 12.4177 11.8223 11.34 11.5497Z" fill="#5A31F4"/>
<path d="M24.7337 9.85253C24.4892 9.86047 24.2496 9.92287 24.0323 10.0352C23.8149 10.1475 23.6254 10.3069 23.4775 10.5018V9.88986C23.4775 9.87867 23.473 9.86793 23.4651 9.86002C23.4572 9.85211 23.4465 9.84766 23.4353 9.84766H22.4485C22.4373 9.84766 22.4265 9.85211 22.4186 9.86002C22.4107 9.86793 22.4062 9.87867 22.4062 9.88986V15.5382C22.4063 15.5494 22.4107 15.5601 22.4186 15.568C22.4265 15.5759 22.4373 15.5804 22.4485 15.5804H23.5051C23.5163 15.5804 23.527 15.5759 23.5349 15.568C23.5428 15.5601 23.5473 15.5494 23.5473 15.5382V13.683H23.5635C23.7103 13.8653 23.8973 14.011 24.11 14.1087C24.3226 14.2065 24.555 14.2535 24.7889 14.2462C25.9153 14.2462 26.8551 13.3113 26.8551 12.0486C26.8613 11.7647 26.8113 11.4825 26.7078 11.2181C26.6043 10.9537 26.4495 10.7125 26.2523 10.5083C26.055 10.3041 25.8193 10.141 25.5586 10.0285C25.298 9.9159 25.0176 9.8561 24.7337 9.85253ZM24.6364 13.1701C24.4138 13.1756 24.1947 13.1146 24.007 12.995C23.8193 12.8754 23.6714 12.7026 23.5824 12.4986C23.4933 12.2946 23.4671 12.0687 23.507 11.8497C23.5469 11.6307 23.6512 11.4286 23.8065 11.2691C23.9618 11.1097 24.1611 11.0001 24.3789 10.9544C24.5968 10.9088 24.8233 10.929 25.0296 11.0127C25.2359 11.0963 25.4126 11.2395 25.5371 11.424C25.6616 11.6085 25.7283 11.826 25.7287 12.0486C25.7308 12.194 25.7043 12.3384 25.6505 12.4735C25.5967 12.6087 25.5168 12.7319 25.4153 12.8361C25.3138 12.9403 25.1928 13.0234 25.0591 13.0807C24.9255 13.138 24.7818 13.1684 24.6364 13.1701Z" fill="#5A31F4"/>
<path d="M19.2792 9.60448C18.6044 9.58716 17.9441 9.80266 17.4095 10.2148H17.3981C17.3777 10.2287 17.3633 10.2498 17.3578 10.2739C17.3524 10.298 17.3564 10.3233 17.3689 10.3446L17.7584 11.0149C17.7659 11.0274 17.776 11.0381 17.7881 11.0463C17.8001 11.0544 17.8138 11.0598 17.8282 11.062C17.8422 11.0646 17.8566 11.0641 17.8704 11.0604C17.8841 11.0568 17.8969 11.0501 17.9077 11.0409L17.9386 11.0149C18.1415 10.8526 18.4661 10.6173 19.2533 10.5556C19.4496 10.5312 19.6489 10.549 19.8378 10.6078C20.0268 10.6666 20.201 10.765 20.3488 10.8965C20.5083 11.0568 20.6336 11.2477 20.7173 11.4577C20.801 11.6678 20.8413 11.8926 20.8358 12.1186C20.8358 13.0065 20.3131 13.5648 19.4724 13.5794C18.7793 13.5794 18.3151 13.2142 18.3151 12.6819C18.3166 12.5502 18.3523 12.4211 18.4185 12.3073C18.4848 12.1935 18.5795 12.0989 18.6933 12.0326C18.7121 12.0189 18.7254 11.999 18.7307 11.9763C18.7361 11.9537 18.7332 11.9299 18.7225 11.9093L18.3736 11.2487C18.367 11.2369 18.3582 11.2265 18.3476 11.2182C18.337 11.2098 18.3249 11.2036 18.3119 11.2C18.2987 11.196 18.2848 11.1948 18.2711 11.1964C18.2574 11.1981 18.2442 11.2026 18.2324 11.2097C17.9645 11.349 17.7421 11.5622 17.5917 11.8239C17.4412 12.0857 17.369 12.3851 17.3835 12.6867C17.4159 13.7287 18.281 14.5241 19.4075 14.5565H19.5406C19.8508 14.5561 20.1578 14.4932 20.4433 14.3716C20.7288 14.25 20.9869 14.0723 21.2022 13.8489C21.4176 13.6255 21.5858 13.3611 21.6968 13.0714C21.8078 12.7817 21.8595 12.4726 21.8486 12.1625C21.8486 10.9289 20.9478 9.60448 19.2792 9.60448Z" fill="#5A31F4"/>
<path d="M31.0165 10.2422H30.3462C30.3303 10.2422 30.315 10.2485 30.3037 10.2598C30.2925 10.271 30.2861 10.2863 30.2861 10.3022V11.7095C30.2866 11.7251 30.2931 11.74 30.3043 11.7509C30.3155 11.7618 30.3305 11.7679 30.3462 11.7679H31.0165C31.2102 11.7552 31.3919 11.6694 31.5246 11.5277C31.6573 11.386 31.7312 11.1992 31.7312 11.005C31.7312 10.8109 31.6573 10.624 31.5246 10.4824C31.3919 10.3407 31.2102 10.2548 31.0165 10.2422Z" fill="#5A31F4"/>
<path d="M33.0771 12.7336C33.0771 12.9381 33.2492 13.0582 33.5495 13.0582C33.9585 13.0582 34.1987 12.8374 34.1987 12.4447V12.3262L33.5868 12.3586C33.2654 12.3732 33.0771 12.5063 33.0771 12.7336Z" fill="#5A31F4"/>
<path d="M38.0466 8.4141H29.032C28.7336 8.41453 28.4475 8.5334 28.2366 8.7446C28.0257 8.9558 27.9072 9.24206 27.9072 9.54053V14.4747C27.9072 14.7732 28.0257 15.0594 28.2366 15.2706C28.4475 15.4818 28.7336 15.6007 29.032 15.6011H38.0466C38.1952 15.6024 38.3426 15.5743 38.4803 15.5183C38.618 15.4624 38.7432 15.3798 38.8488 15.2752C38.9544 15.1707 39.0383 15.0463 39.0956 14.9091C39.1529 14.772 39.1825 14.6249 39.1828 14.4763V9.54215C39.183 9.39327 39.1537 9.24581 39.0966 9.10832C39.0394 8.97083 38.9556 8.84603 38.85 8.74113C38.7443 8.63624 38.6189 8.55332 38.481 8.49719C38.3431 8.44106 38.1955 8.41282 38.0466 8.4141ZM31.0511 12.3257H30.3418C30.3259 12.3257 30.3106 12.3321 30.2994 12.3433C30.2881 12.3546 30.2818 12.3699 30.2818 12.3858V13.3953C30.2818 13.4113 30.2755 13.4266 30.2642 13.4378C30.2529 13.4491 30.2377 13.4554 30.2217 13.4554H29.7235C29.7075 13.4554 29.6922 13.4491 29.681 13.4378C29.6697 13.4266 29.6634 13.4113 29.6634 13.3953V9.7499C29.6634 9.73398 29.6697 9.7187 29.681 9.70744C29.6922 9.69618 29.7075 9.68985 29.7235 9.68985H31.0511C31.4002 9.68985 31.735 9.82853 31.9819 10.0754C32.2288 10.3223 32.3674 10.6571 32.3674 11.0062C32.3674 11.3553 32.2288 11.6901 31.9819 11.937C31.735 12.1838 31.4002 12.3225 31.0511 12.3225V12.3257ZM34.7842 13.3937C34.7856 13.4012 34.7856 13.4089 34.7842 13.4165C34.7781 13.4311 34.7664 13.4428 34.7517 13.4489H34.729H34.2583H34.2356C34.2209 13.4428 34.2092 13.4311 34.2031 13.4165C34.2017 13.4089 34.2017 13.4012 34.2031 13.3937V13.285C34.2042 13.2754 34.202 13.2658 34.197 13.2576C34.192 13.2494 34.1845 13.243 34.1756 13.2395C34.1665 13.2358 34.1565 13.2352 34.1471 13.2379C34.1377 13.2405 34.1294 13.2463 34.1236 13.2541C34.0273 13.348 33.912 13.4202 33.7854 13.4658C33.6589 13.5114 33.5241 13.5295 33.39 13.5187C32.8527 13.5187 32.4973 13.2395 32.4973 12.7559C32.4921 12.6381 32.5164 12.5209 32.5679 12.4148C32.6195 12.3088 32.6968 12.2174 32.7927 12.1488C32.9858 12.0027 33.2796 11.9281 33.7325 11.9102L34.2048 11.894V11.756C34.2048 11.4769 34.0165 11.3584 33.7178 11.3584C33.4192 11.3584 33.2309 11.4655 33.1822 11.6392C33.1789 11.6515 33.1714 11.6624 33.1611 11.67C33.1509 11.6777 33.1383 11.6817 33.1254 11.6814H32.6515C32.6428 11.6817 32.6341 11.6802 32.6261 11.6767C32.6181 11.6733 32.6109 11.6682 32.6052 11.6616C32.5994 11.6551 32.5952 11.6473 32.5928 11.639C32.5904 11.6306 32.59 11.6218 32.5914 11.6132C32.6612 11.1993 33.0037 10.8861 33.7276 10.8861C34.5018 10.8861 34.781 11.2464 34.781 11.9329L34.7842 13.3937ZM37.7236 11.0273L36.6751 13.8255C36.4365 14.4747 36.0259 14.637 35.5617 14.637C35.4757 14.6391 35.3898 14.6288 35.3068 14.6062C35.294 14.6027 35.2826 14.5951 35.2744 14.5845C35.2662 14.574 35.2616 14.5611 35.2614 14.5477V14.1225C35.2596 14.1139 35.2596 14.1051 35.2614 14.0965C35.267 14.0842 35.2766 14.074 35.2887 14.0679C35.3008 14.0617 35.3146 14.0598 35.3279 14.0624C35.4002 14.0763 35.4735 14.0833 35.5471 14.0835C35.6734 14.0899 35.7982 14.0537 35.9015 13.9807C36.0048 13.9077 36.0806 13.8022 36.1168 13.681L36.1476 13.5836C36.1524 13.5705 36.1524 13.5561 36.1476 13.5431L35.1737 11.024C35.1715 11.015 35.1715 11.0055 35.1737 10.9964C35.1755 10.987 35.1794 10.9781 35.1851 10.9705C35.1906 10.9629 35.1978 10.9568 35.2062 10.9526C35.2153 10.9505 35.2247 10.9505 35.2338 10.9526H35.711C35.7233 10.9527 35.7352 10.9565 35.7453 10.9634C35.7555 10.9704 35.7633 10.9802 35.7678 10.9916L36.4333 12.777C36.4377 12.7886 36.4456 12.7987 36.4559 12.8058C36.4662 12.8128 36.4784 12.8166 36.4909 12.8166C36.5034 12.8166 36.5156 12.8128 36.5259 12.8058C36.5361 12.7987 36.544 12.7886 36.5485 12.777L37.1263 11.0045C37.1304 10.9927 37.138 10.9824 37.1482 10.9752C37.1584 10.9679 37.1706 10.964 37.1831 10.964H37.67C37.6795 10.964 37.6888 10.9663 37.6972 10.9705C37.7057 10.9747 37.713 10.9808 37.7187 10.9883C37.7245 10.996 37.7284 11.0049 37.7301 11.0143C37.7322 11.0234 37.7322 11.0328 37.7301 11.0419L37.7236 11.0273Z" fill="#5A31F4"/>
</g>
<rect x="0.3" y="0.3" width="47.4" height="23.4" rx="4.5" stroke="#D0D5DD" stroke-width="0.6"/>
<defs>
<clipPath id="clip0_1468_2284">
<rect width="30.3516" height="7.2" fill="white" transform="translate(8.82422 8.40039)"/>
</clipPath>
</defs>
</svg>
