<svg width="48" height="24" viewBox="0 0 48 24" fill="none" xmlns="http://www.w3.org/2000/svg">
<rect x="0.3" y="0.3" width="47.4" height="23.4" rx="4.5" fill="white"/>
<g clip-path="url(#clip0_1468_2275)">
<path d="M13.346 9.08398C13.5604 9.42609 13.657 9.77847 13.657 10.2236C13.657 11.6433 12.4027 13.4876 11.3847 14.7826H9.05949L8.12695 9.39482L10.1629 9.20805L10.656 13.0418C11.1167 12.3166 11.6852 11.1771 11.6852 10.4001C11.6852 9.97481 11.6098 9.68513 11.4919 9.44662L13.346 9.08398Z" fill="#008CFF"/>
<path d="M15.9839 11.4594C16.3586 11.4594 17.3018 11.2938 17.3018 10.7758C17.3018 10.5271 17.1198 10.4031 16.9053 10.4031C16.53 10.4031 16.0376 10.8379 15.9839 11.4594ZM15.941 12.4853C15.941 13.1178 16.3049 13.3659 16.7875 13.3659C17.3129 13.3659 17.8161 13.2418 18.47 12.9207L18.2237 14.5368C17.7629 14.7543 17.0449 14.8994 16.3479 14.8994C14.58 14.8994 13.9473 13.8634 13.9473 12.5683C13.9473 10.8898 14.9765 9.10742 17.0984 9.10742C18.2667 9.10742 18.92 9.73984 18.92 10.6204C18.9201 12.0401 17.0343 12.475 15.941 12.4853Z" fill="#008CFF"/>
<path d="M24.7968 10.3277C24.7968 10.5349 24.7643 10.8354 24.7319 11.0318L24.121 14.762H22.1385L22.6958 11.3426C22.7064 11.2499 22.7388 11.0631 22.7388 10.9596C22.7388 10.7108 22.578 10.6488 22.3847 10.6488C22.1278 10.6488 21.8704 10.7626 21.699 10.8457L21.0669 14.762H19.0732L19.984 9.17732H21.7095L21.7314 9.62307C22.1385 9.36408 22.6745 9.08398 23.435 9.08398C24.4427 9.08388 24.7968 9.58138 24.7968 10.3277Z" fill="#008CFF"/>
<path d="M30.6824 9.71878C31.2502 9.32546 31.7864 9.10742 32.5255 9.10742C33.5434 9.10742 33.8975 9.60492 33.8975 10.3513C33.8975 10.5585 33.8651 10.859 33.8328 11.0554L33.2225 14.7855H31.2395L31.8075 11.2939C31.8179 11.2005 31.8399 11.0867 31.8399 11.0145C31.8399 10.7344 31.679 10.6723 31.4857 10.6723C31.2395 10.6723 30.9933 10.7759 30.8105 10.8693L30.1786 14.7856H28.1961L28.764 11.2939C28.7744 11.2006 28.7958 11.0867 28.7958 11.0145C28.7958 10.7345 28.6348 10.6724 28.4422 10.6724C28.1848 10.6724 27.9279 10.7862 27.7564 10.8693L27.1239 14.7857H25.1309L26.0416 9.20091H27.746L27.7996 9.66714C28.1961 9.38774 28.7317 9.10763 29.4497 9.10763C30.0714 9.10742 30.4783 9.36646 30.6824 9.71878Z" fill="#008CFF"/>
<path d="M37.8413 11.3418C37.8413 10.8858 37.7233 10.575 37.3699 10.575C36.5876 10.575 36.4268 11.9115 36.4268 12.5952C36.4268 13.1138 36.577 13.4348 36.9304 13.4348C37.6698 13.4348 37.8413 12.0254 37.8413 11.3418ZM34.4121 12.5126C34.4121 10.7515 35.3765 9.10352 37.5951 9.10352C39.2669 9.10352 39.8781 10.057 39.8781 11.373C39.8781 13.1138 38.9241 14.9165 36.6519 14.9165C34.9694 14.9165 34.4121 13.8492 34.4121 12.5126Z" fill="#008CFF"/>
</g>
<rect x="0.3" y="0.3" width="47.4" height="23.4" rx="4.5" stroke="#D0D5DD" stroke-width="0.6"/>
<defs>
<clipPath id="clip0_1468_2275">
<rect width="31.752" height="5.83359" fill="white" transform="translate(8.12402 9.08398)"/>
</clipPath>
</defs>
</svg>
