<svg width="48" height="24" viewBox="0 0 48 24" fill="none" xmlns="http://www.w3.org/2000/svg">
<rect x="0.3" y="0.3" width="47.4" height="23.4" rx="4.5" fill="white"/>
<g clip-path="url(#clip0_1468_2207)">
<path d="M27.2735 8.50586C25.7419 8.50586 24.3666 9.30287 24.3666 10.7654C24.3666 12.4498 26.7959 12.5649 26.7959 13.403C26.7959 13.7563 26.3842 14.0767 25.6925 14.0767C24.7043 14.0767 23.9631 13.633 23.9631 13.633L23.6502 15.112C23.6502 15.112 24.4984 15.49 25.6348 15.49C27.3147 15.49 28.6323 14.6601 28.6323 13.1647C28.6323 11.3899 26.1948 11.2749 26.1948 10.4943C26.1948 10.2149 26.5324 9.9109 27.2241 9.9109C28.0064 9.9109 28.6488 10.2314 28.6488 10.2314L28.9617 8.80166C28.9535 8.80166 28.2535 8.50586 27.2735 8.50586ZM13.2414 8.61268L13.2002 8.82631C13.2002 8.82631 13.8425 8.94134 14.4272 9.17962C15.1766 9.45077 15.226 9.60689 15.3577 10.0917L16.7329 15.375H18.5775L21.4021 8.61268H19.5657L17.7458 13.214L17.0047 9.31109C16.9388 8.86739 16.593 8.61268 16.1647 8.61268H13.2414ZM22.1432 8.61268L20.7021 15.375H22.4562L23.889 8.61268H22.1432ZM31.9098 8.61268C31.4898 8.61268 31.2674 8.83452 31.1027 9.22892L28.5335 15.375H30.3698L30.7239 14.3479H32.9638L33.1779 15.375H34.8002L33.392 8.61268H31.9098ZM32.1486 10.445L32.6921 12.9839H31.2345L32.1486 10.445Z" fill="#1434CB"/>
</g>
<rect x="0.3" y="0.3" width="47.4" height="23.4" rx="4.5" stroke="#D0D5DD" stroke-width="0.6"/>
<defs>
<clipPath id="clip0_1468_2207">
<rect width="21.6" height="6.98414" fill="white" transform="translate(13.2002 8.50781)"/>
</clipPath>
</defs>
</svg>
